<svg width="400" height="400" viewBox="0 0 600 600" fill="none" xmlns="http://www.w3.org/2000/svg">
<rect width="600" height="600" fill="#232425"/>
<path d="M293.856 205.358C293.856 179.525 253.496 165.619 242.023 160.108C234.563 156.531 223.804 152.809 220.245 145.04C217.138 138.255 222.263 128.161 230.289 126.383C253.394 121.286 255.797 162.556 277.712 160.198C303.98 157.369 289.083 124.64 276.624 115.149C261.715 103.803 237.556 110.454 224.167 120.537C210.064 131.156 206.198 148.952 191.879 159.169C182.22 166.055 168.582 168.268 157.154 171.856C134.423 178.988 111.749 191.407 99.5734 210.924C84.9827 234.298 89.3021 268.269 113.779 284.924C129.095 295.343 150.941 296.08 168.877 291.497C181.687 288.222 192.9 280.788 196.165 268.504C199.736 255.101 186.914 228.105 137.734 258.812C103.734 280.04 98.5984 227.502 107.883 216.793C124.095 198.103 146.418 242.235 178.162 226.999C201.187 215.943 145.046 163.048 224.133 167.53C253.519 169.196 234.801 184.678 231.298 188.635C221.129 200.126 212.399 213.205 207.513 227.345C204.781 235.237 201.572 247.131 207.638 254.497C221.571 271.41 256.024 236.757 261.749 245.476C265.683 251.479 239.869 270.303 231.774 276.038C223.748 281.727 218.193 293.934 233.021 298.349C234.132 298.685 234.132 300.127 233.021 300.462C218.193 304.878 223.748 317.095 231.774 322.774C239.869 328.508 265.683 347.344 261.749 353.335C256.035 362.065 221.571 327.402 207.638 344.314C201.572 351.681 204.781 363.575 207.513 371.466C212.399 385.607 221.129 398.685 231.298 410.177C234.801 414.134 253.519 429.616 224.133 431.281C145.046 435.764 201.198 382.868 178.162 371.813C146.418 356.577 124.095 400.709 107.883 382.019C98.5984 371.31 103.734 318.772 137.734 340C186.925 370.695 199.736 343.711 196.165 330.308C192.9 318.034 181.676 310.601 168.877 307.314C150.953 302.72 129.095 303.458 113.779 313.887C89.3021 330.543 84.9827 364.513 99.5734 387.887C111.749 407.393 134.423 419.823 157.154 426.955C168.582 430.543 182.22 432.757 191.879 439.642C206.209 449.859 210.075 467.655 224.167 478.274C237.545 488.346 261.715 495.008 276.624 483.662C289.083 474.172 303.98 441.442 277.712 438.614C255.786 436.255 253.394 477.526 230.289 472.428C222.263 470.662 217.138 460.557 220.245 453.772C223.804 445.992 234.575 442.281 242.023 438.703C253.496 433.193 293.867 419.298 293.856 393.454C293.856 360.277 222.852 416.682 222.852 377.95C222.852 321.041 285.772 405.18 285.772 328.877C285.772 315.15 281.929 305.347 263.563 300.485C262.373 300.172 262.373 298.651 263.563 298.338C281.929 293.476 285.772 283.672 285.772 269.946C285.772 193.643 222.852 277.782 222.852 220.873C222.852 182.129 293.856 238.546 293.856 205.369V205.358Z" fill="#FFF9F4"/>
<path d="M486.222 313.875C470.906 303.457 449.059 302.72 431.124 307.303C418.313 310.578 407.101 318.011 403.836 330.296C400.265 343.699 413.087 370.694 462.267 339.988C496.267 318.76 501.402 371.298 492.117 382.007C475.905 400.697 453.583 356.565 421.839 371.801C398.814 382.856 454.955 435.752 375.868 431.269C346.482 429.604 365.199 414.122 368.703 410.165C378.872 398.674 387.601 385.595 392.488 371.455C395.22 363.563 398.428 351.669 392.363 344.303C378.43 327.39 343.977 362.043 338.251 353.323C334.317 347.321 360.132 328.497 368.226 322.762C376.253 317.072 381.808 304.866 366.979 300.45C365.868 300.115 365.868 298.673 366.979 298.338C381.808 293.922 376.253 281.704 368.226 276.026C360.132 270.292 334.317 251.456 338.251 245.465C343.965 236.734 378.43 271.398 392.363 254.485C398.428 247.119 395.22 235.225 392.488 227.334C387.601 213.193 378.872 200.114 368.703 188.623C365.199 184.666 346.482 169.184 375.868 167.519C454.955 163.036 398.802 215.932 421.839 226.987C453.583 242.223 475.905 198.091 492.117 216.781C501.402 227.49 496.267 280.028 462.267 258.8C413.076 228.105 400.265 255.089 403.836 268.492C407.101 280.766 418.325 288.199 431.124 291.485C449.048 296.08 470.906 295.342 486.222 284.913C510.699 268.257 515.018 234.286 500.427 210.913C488.251 191.407 465.577 178.976 442.847 171.845C431.419 168.256 417.781 166.043 408.121 159.157C393.791 148.94 389.925 131.145 375.834 120.525C362.456 110.454 338.285 103.792 323.377 115.137C310.918 124.628 296.021 157.358 322.289 160.186C344.215 162.544 346.607 121.274 369.712 126.372C377.738 128.138 382.863 138.243 379.756 145.028C376.196 152.808 365.426 156.519 357.978 160.096C346.505 165.607 306.134 179.502 306.145 205.346C306.145 238.523 377.149 182.118 377.149 220.85C377.149 277.759 314.228 193.62 314.228 269.923C314.228 283.649 318.072 293.453 336.437 298.315C337.628 298.628 337.628 300.149 336.437 300.462C318.072 305.324 314.228 315.127 314.228 328.854C314.228 405.157 377.149 321.018 377.149 377.927C377.149 416.671 306.145 360.254 306.145 393.431C306.145 419.264 346.505 433.17 357.978 438.681C365.438 442.258 376.196 445.98 379.756 453.749C382.863 460.534 377.738 470.628 369.712 472.405C346.607 477.503 344.203 436.233 322.289 438.591C296.021 441.419 310.918 474.149 323.377 483.639C338.285 494.985 362.456 488.334 375.834 478.252C389.937 467.632 393.803 449.836 408.121 439.62C417.781 432.734 431.419 430.52 442.847 426.932C465.577 419.801 488.251 407.381 500.427 387.864C515.018 364.491 510.699 330.52 486.222 313.864V313.875Z" fill="#FFF9F4"/>
</svg>
